<?xml version="1.0" encoding="UTF-8" standalone="no"?>
<!-- Created with Inkscape (http://www.inkscape.org/) -->

<svg
   width="420mm"
   height="297mm"
   viewBox="0 0 420 297"
   version="1.1"
   id="svg5"
   inkscape:version="1.1 (ce6663b3b7, 2021-05-25)"
   sodipodi:docname="aruco-base.svg"
   xmlns:inkscape="http://www.inkscape.org/namespaces/inkscape"
   xmlns:sodipodi="http://sodipodi.sourceforge.net/DTD/sodipodi-0.dtd"
   xmlns="http://www.w3.org/2000/svg"
   xmlns:svg="http://www.w3.org/2000/svg">
  <sodipodi:namedview
     id="namedview7"
     pagecolor="#ffffff"
     bordercolor="#666666"
     borderopacity="1.0"
     inkscape:pageshadow="2"
     inkscape:pageopacity="0.0"
     inkscape:pagecheckerboard="0"
     inkscape:document-units="mm"
     showgrid="false"
     inkscape:zoom="0.47433592"
     inkscape:cx="1213.2752"
     inkscape:cy="658.8158"
     inkscape:window-width="2488"
     inkscape:window-height="1536"
     inkscape:window-x="72"
     inkscape:window-y="27"
     inkscape:window-maximized="1"
     inkscape:current-layer="layer1" />
  <defs
     id="defs2" />
  <g
     inkscape:label="Layer 1"
     inkscape:groupmode="layer"
     id="layer1">
    <g
       id="g3349"
       transform="translate(-206.16001,101.05966)">
      <g
         id="g3331">
        <path
           style="fill:none;stroke:#ff0000;stroke-width:1;stroke-linecap:butt;stroke-linejoin:miter;stroke-miterlimit:4;stroke-dasharray:none;stroke-opacity:1"
           d="m 206.16001,47.440345 h 420"
           id="path1653-3" />
        <path
           style="fill:none;stroke:#ff0000;stroke-width:1;stroke-linecap:butt;stroke-linejoin:miter;stroke-miterlimit:4;stroke-dasharray:none;stroke-opacity:1"
           d="M 213.31559,-6.9116545 619.00443,101.79234"
           id="path1653-3-9" />
        <path
           style="fill:none;stroke:#ff0000;stroke-width:1;stroke-linecap:butt;stroke-linejoin:miter;stroke-miterlimit:4;stroke-dasharray:none;stroke-opacity:1"
           d="M 234.29468,-57.559655 598.02534,152.44034"
           id="path1653-3-7" />
        <path
           style="fill:none;stroke:#ff0000;stroke-width:1;stroke-linecap:butt;stroke-linejoin:miter;stroke-miterlimit:4;stroke-dasharray:none;stroke-opacity:1"
           d="M 267.66759,-101.05208 564.65243,195.93277"
           id="path1653-3-3" />
        <path
           style="fill:none;stroke:#ff0000;stroke-width:1;stroke-linecap:butt;stroke-linejoin:miter;stroke-miterlimit:4;stroke-dasharray:none;stroke-opacity:1"
           d="m 311.16001,-134.42499 210,363.73067"
           id="path1653-3-6" />
        <path
           style="fill:none;stroke:#ff0000;stroke-width:1;stroke-linecap:butt;stroke-linejoin:miter;stroke-miterlimit:4;stroke-dasharray:none;stroke-opacity:1"
           d="m 361.80801,-155.40408 108.704,405.68885"
           id="path1653-3-1" />
        <path
           style="fill:none;stroke:#ff0000;stroke-width:1;stroke-linecap:butt;stroke-linejoin:miter;stroke-miterlimit:4;stroke-dasharray:none;stroke-opacity:1"
           d="m 416.16001,-162.55966 v 420"
           id="path1653-3-29" />
        <path
           style="fill:none;stroke:#ff0000;stroke-width:1;stroke-linecap:butt;stroke-linejoin:miter;stroke-miterlimit:4;stroke-dasharray:none;stroke-opacity:1"
           d="m 470.51201,-155.40408 -108.704,405.68885"
           id="path1653-3-31" />
        <path
           style="fill:none;stroke:#ff0000;stroke-width:1;stroke-linecap:butt;stroke-linejoin:miter;stroke-miterlimit:4;stroke-dasharray:none;stroke-opacity:1"
           d="m 521.16001,-134.42499 -210,363.73067"
           id="path1653-3-94" />
        <path
           style="fill:none;stroke:#ff0000;stroke-width:1;stroke-linecap:butt;stroke-linejoin:miter;stroke-miterlimit:4;stroke-dasharray:none;stroke-opacity:1"
           d="M 564.65243,-101.05208 267.66759,195.93277"
           id="path1653-3-78" />
        <path
           style="fill:none;stroke:#ff0000;stroke-width:1;stroke-linecap:butt;stroke-linejoin:miter;stroke-miterlimit:4;stroke-dasharray:none;stroke-opacity:1"
           d="M 598.02534,-57.559655 234.29468,152.44034"
           id="path1653-3-4" />
        <path
           style="fill:none;stroke:#ff0000;stroke-width:1;stroke-linecap:butt;stroke-linejoin:miter;stroke-miterlimit:4;stroke-dasharray:none;stroke-opacity:1"
           d="M 619.00443,-6.9116545 213.31559,101.79234"
           id="path1653-3-5" />
      </g>
      <g
         id="g1552"
         transform="translate(411.09241,10.566858)">
        <rect
           style="fill:#ffffff;fill-opacity:1;stroke:none;stroke-width:0.250069"
           id="rect581"
           width="268.8345"
           height="200"
           x="-129.34964"
           y="-63.126518" />
        <path
           style="fill:#000000;stroke-width:0.542005"
           d="M -129.34974,107.6052 V 78.336901 h 29.2683 29.268297 v 29.268299 29.26828 h -29.268297 -29.2683 z m 36.856377,7.58807 v -14.63414 h 3.52303 3.52304 v -3.794045 -3.79403 h 3.79404 3.79404 v -3.52304 -3.52303 h -14.63415 -14.634157 v 3.52303 3.52304 h 7.317087 7.31707 v 3.79403 3.794045 h -14.634157 -14.63414 v 14.63414 14.63414 h 14.63414 14.634157 z m -22.222227,3.52303 v -3.52303 h 3.79403 3.79404 v -3.79404 -3.79403 h 3.52305 3.52303 v 3.79403 3.79404 h -3.52303 -3.52305 v 3.52303 3.52304 h -3.79404 -3.79403 z m 55.284557,-11.1111 V 78.336901 h 29.26829 29.26829955 V 107.6052 136.87348 H -30.162743 -59.431033 Z m 14.63415,18.42818 v -3.79404 h 3.79403 3.79404 v -3.52304 -3.52303 h -3.79404 -3.79403 v 3.52303 3.52304 h -3.52304 -3.52303 v 3.79404 3.79403 h 3.52303 3.52304 z M -7.9405135,107.8762 V 85.924985 h -3.7940395 -3.79404 v 7.31707 7.317075 h -3.52304 -3.52303 v -3.794045 -3.79403 h -7.31707 -7.31708 v -3.52304 -3.52303 h -3.79404 -3.79403 v 7.31707 7.317075 h -3.52304 -3.52303 v 3.52303 3.52304 h 10.8401 10.84011 v 3.79403 3.79404 h 3.79404 3.79404 v 7.31707 7.31707 h 7.31707 7.3170795 z m 18.9701905,-0.271 V 78.336901 h 29.268286 29.26829 V 107.6052 136.87348 H 40.297963 11.029677 Z m 22.22222,18.42818 v -3.79404 h 3.52304 3.523026 v 3.79404 3.79403 h 11.11111 11.11111 V 111.39923 92.971055 h -3.79403 -3.79404 v -3.52304 -3.52303 h -3.52304 -3.52303 v 3.52303 3.52304 h -7.31708 -7.317066 v -3.52304 -3.52303 h -3.79404 -3.79403 v 3.52303 3.52304 h 3.79403 3.79404 v 3.79403 3.794045 h 7.317066 7.31708 v -3.794045 -3.79403 h 3.52303 3.52304 v 7.317065 7.31708 h -3.52304 -3.52303 v 3.79403 3.79404 h 3.52303 3.52304 v 3.52303 3.52304 h -7.31708 -7.31707 v -7.31707 -7.31707 h -7.317066 -7.31707 v -3.52304 -3.52303 h -3.52304 -3.52304 v 3.52303 3.52304 h 3.52304 3.52304 v 3.79403 3.79404 h 3.79403 3.79404 v 3.52303 3.52304 h -3.79404 -3.79403 v 3.79404 3.79403 h 3.79403 3.79404 z M 80.948373,107.6052 V 78.336901 h 29.268287 29.26829 V 107.6052 136.87348 H 110.21666 80.948373 Z m 43.902437,18.42818 v -3.79404 h 3.79404 3.79403 v -3.52304 -3.52303 h -11.11111 -11.11111 v -3.79404 -3.79403 h 3.79404 3.79404 v -3.52304 -3.52303 h -3.79404 -3.79404 v 3.52303 3.52304 h -3.52303 -3.52304 v -7.31708 -7.317065 h 7.31707 7.31708 v -3.52304 -3.52303 H 106.69363 95.582513 v 14.634145 14.63414 h -3.52303 -3.52304 v 3.52303 3.52304 h 10.84011 10.840107 v 3.79404 3.79403 h 7.31707 7.31708 z m 7.58807,-21.95122 v -3.52303 h -3.79403 -3.79404 v 3.52303 3.52304 h 3.79404 3.79403 z M -129.34974,36.602491 V 7.3341914 h 29.2683 29.268297 v 29.2682996 29.26829 h -29.268297 -29.2683 z m 14.63415,18.42818 v -3.79404 h 3.79403 3.79404 v 3.79404 3.79404 h 3.52305 3.52303 v -7.31708 -7.31707 h -7.31708 -7.31707 v -7.31707 -7.31707 h -3.52304 -3.52303 v 14.63414 14.63415 h 3.52303 3.52304 z m 36.856377,-7.31707 v -3.52304 h -3.79404 -3.79404 v 3.52304 3.52303 h 3.79404 3.79404 z m 0,-14.63415 v -3.52303 h -3.79404 -3.79404 v -7.31708 -7.31707 h -7.31707 -7.317077 v 3.52303 3.52304 h -3.52303 -3.52305 v -3.52304 -3.52303 h -7.31707 -7.31707 v 3.52303 3.52304 h 7.31707 7.31707 v 3.79404 3.79404 h 7.317087 7.31707 v 3.52303 3.52304 h 7.31707 7.31708 z m 18.42818,3.52304 V 7.3341914 h 29.26829 29.26829955 V 36.602491 65.870781 H -30.162743 -59.431033 Z m 22.22222,18.42818 v -3.79404 h -7.31707 -7.31707 v 3.79404 3.79404 h 7.31707 7.31707 z m 14.63415,0 v -3.79404 h 3.52303 3.52304 v 3.79404 3.79404 h 3.79404 3.7940395 v -7.31708 -7.31707 h -7.3170795 -7.31707 v -3.79404 -3.79403 h 3.52303 3.52304 v -7.31708 -7.31707 h -7.31707 -7.31708 v 3.79404 3.79404 h 3.79404 3.79404 v 3.52303 3.52304 h -3.79404 -3.79404 v 11.11111 11.11111 h 3.79404 3.79404 z m -14.63415,-14.63415 v -3.79403 h -3.79404 -3.79403 v -7.31708 -7.31707 h 3.79403 3.79404 v -3.52304 -3.52303 h -3.79404 -3.79403 v 3.52303 3.52304 h -3.52304 -3.52303 v 11.11111 11.11111 h 7.31707 7.31707 z m 48.23849,-3.79403 V 7.3341914 h 29.268286 29.26829 V 36.602491 65.870781 H 40.297963 11.029677 Z m 29.268286,14.90514 v -7.31707 h 3.79404 3.79404 v 7.31707 7.31708 h 3.52303 3.52304 v -7.31708 -7.31707 h 3.79404 3.79403 v -3.79404 -3.79403 h -7.31707 -7.31707 v -3.52304 -3.52303 h 3.52303 3.52304 v -7.31708 -7.31707 h -3.52304 -3.52303 v 7.31707 7.31708 h -3.79404 -3.79404 v -3.79404 -3.79404 h -3.523026 -3.52304 v 3.79404 3.79404 h -3.79404 -3.79403 v 3.52303 3.52304 h 3.79403 3.79404 v 7.31707 7.31707 h -3.79404 -3.79403 v 3.79404 3.79404 h 7.31707 7.317066 z m -7.046066,-18.42818 v -3.52303 h 3.52304 3.523026 v 3.52303 3.52304 h -3.523026 -3.52304 z m -7.58807,-14.63415 v -3.52303 h -3.52304 -3.52304 v 3.52303 3.52304 h 3.52304 3.52304 z m 55.284546,18.15719 V 7.3341914 h 29.268287 29.26829 V 36.602491 65.870781 H 110.21666 80.948373 Z m 36.856367,18.42818 v -3.79404 h 3.52303 3.52304 v 3.79404 3.79404 h 3.79404 3.79403 v -7.31708 -7.31707 h -3.79403 -3.79404 v -3.79404 -3.79403 h 3.79404 3.79403 v -7.31708 -7.31707 h -7.31707 -7.31707 v -3.52304 -3.52303 h -7.31708 -7.31707 v 3.52303 3.52304 h 3.52304 3.52303 v 7.31707 7.31708 h 3.79404 3.79404 v 7.31707 7.31707 h -7.31708 -7.31707 v -10.84011 -10.8401 h -7.317067 -7.31708 v 3.52303 3.52304 h 3.52304 3.52303 v 7.31707 7.31707 h -3.52303 -3.52304 v 3.79404 3.79404 h 14.634147 14.63415 z m 0,-21.95122 v -3.52303 h 3.52303 3.52304 v 3.52303 3.52304 h -3.52304 -3.52303 z m -247.15448,-66.937672 v -29.268293 h 29.2683 29.268297 v 29.268293 29.2682914 h -29.268297 -29.2683 z m 22.22222,18.428182 v -3.794036 h -3.79404 -3.79403 v -14.634146 -14.634147 h -3.52304 -3.52303 v 14.634147 14.634146 h 3.52303 3.52304 v 3.794036 3.79404 h 3.79403 3.79404 z m 29.268307,0 v -3.794036 h -3.79404 -3.79404 v -3.523035 -3.523035 h 3.79404 3.79404 v -3.794038 -3.794038 h -3.79404 -3.79404 v -3.523036 -3.523035 h 3.79404 3.79404 v -7.317073 -7.317073 h -7.31708 -7.31707 v 3.523035 3.523035 h -7.31707 -7.317087 v 7.317074 7.317073 h 7.317087 7.31707 v 7.317073 7.317073 h 3.52303 3.52304 v 3.794036 3.79404 h 3.79404 3.79404 z m 18.42818,-18.428182 v -29.268293 h 29.26829 29.26829955 v 29.268293 29.2682914 H -30.162743 -59.431033 Z m 36.85637,18.428182 v -3.794036 h 3.52303 3.52304 v 3.794036 3.79404 h 3.79404 3.7940395 v -7.317073 -7.317073 h -3.7940395 -3.79404 v -3.794038 -3.794038 h 3.79404 3.7940395 V -44.69833 -55.538438 h -3.7940395 -3.79404 v 10.840108 10.840109 h -18.15718 -18.15718 v 7.317073 7.317073 h 3.52303 3.52304 v -3.523035 -3.523035 h 3.79403 3.79404 v 7.317073 7.317073 h 7.31708 7.31707 z m -7.58808,-7.317071 v -3.523035 h 3.79404 3.79404 v 3.523035 3.523035 h -3.79404 -3.79404 z m 0,-21.95122 v -3.794038 h 3.79404 3.79404 v -3.523035 -3.523035 h -3.79404 -3.79404 v 3.523035 3.523035 h -7.31707 -7.31707 v 3.794038 3.794038 h 7.31707 7.31707 z m 41.19242,10.840109 v -29.268293 h 29.268286 29.26829 v 29.268293 29.2682914 H 40.297963 11.029677 Z m 43.902436,14.905149 v -7.317073 h -3.52304 -3.52303 v 3.523035 3.523035 h -3.79404 -3.79404 v -3.523035 -3.523035 h -3.523026 -3.52304 v -3.794038 -3.794038 h 7.317066 7.31708 v -3.523036 -3.523035 h -7.31708 -7.317066 v -7.317073 -7.317073 h -7.31707 -7.31708 v 3.523035 3.523035 h 3.52304 3.52304 v 3.794038 3.794038 h -3.52304 -3.52304 v 7.317073 7.317074 h 3.52304 3.52304 v 7.317073 7.317073 h 14.634136 14.63415 z M 25.663827,-37.381257 v -3.523035 h 3.79403 3.79404 v 3.523035 3.523036 h -3.79404 -3.79403 z m 36.856356,-7.317073 v -3.794038 h -3.79403 -3.79404 v -3.523035 -3.523035 h -3.52304 -3.52303 v 3.523035 3.523035 h 3.52303 3.52304 v 3.794038 3.794038 h 3.79404 3.79403 z m 18.42819,10.840109 v -29.268293 h 29.268287 29.26829 v 29.268293 29.2682914 H 110.21666 80.948373 Z m 22.222217,18.428182 v -3.794036 h 3.52304 3.52303 v 3.794036 3.79404 h 3.79404 3.79404 v -3.79404 -3.794036 h -3.79404 -3.79404 v -3.523035 -3.523035 h 7.31707 7.31708 v -3.794038 -3.794038 h 3.79404 3.79403 v -3.523036 -3.523035 H 114.0107 95.582513 v -3.794038 -3.794038 h 3.79404 3.794037 v -3.523035 -3.523035 h -7.317067 -7.31708 v 7.317073 7.317073 h 3.52304 3.52303 v 7.317073 7.317074 h -3.52303 -3.52304 v 3.523035 3.523035 h 3.52304 3.52303 v 3.794036 3.79404 h 3.79404 3.794037 z m 0,-14.634144 v -3.794038 h 3.52304 3.52303 v 3.794038 3.794038 h -3.52303 -3.52304 z m 29.26829,14.634144 v -3.794036 h -3.79403 -3.79404 v 3.794036 3.79404 h 3.79404 3.79403 z m -14.63414,-36.585364 v -3.523035 h -3.79404 -3.79404 v 3.523035 3.523035 h 3.79404 3.79404 z m 14.63414,0 v -3.523035 h -3.79403 -3.79404 v 3.523035 3.523035 h 3.79404 3.79403 z"
           id="path115" />
      </g>
    </g>
  </g>
</svg>
