<?xml version="1.0" encoding="UTF-8" standalone="no"?>
<!-- Created with Inkscape (http://www.inkscape.org/) -->

<svg
   width="210mm"
   height="297mm"
   viewBox="0 0 210 297"
   version="1.1"
   id="svg5"
   inkscape:version="1.1.1 (eb90963e84, 2021-10-02)"
   sodipodi:docname="leds.svg"
   xmlns:inkscape="http://www.inkscape.org/namespaces/inkscape"
   xmlns:sodipodi="http://sodipodi.sourceforge.net/DTD/sodipodi-0.dtd"
   xmlns="http://www.w3.org/2000/svg"
   xmlns:svg="http://www.w3.org/2000/svg">
  <sodipodi:namedview
     id="namedview7"
     pagecolor="#ffffff"
     bordercolor="#666666"
     borderopacity="1.0"
     inkscape:pageshadow="2"
     inkscape:pageopacity="0.0"
     inkscape:pagecheckerboard="0"
     inkscape:document-units="mm"
     showgrid="false"
     inkscape:zoom="2.5010402"
     inkscape:cx="390.23763"
     inkscape:cy="320.06683"
     inkscape:window-width="3768"
     inkscape:window-height="2089"
     inkscape:window-x="72"
     inkscape:window-y="34"
     inkscape:window-maximized="1"
     inkscape:current-layer="layer1" />
  <defs
     id="defs2">
    <inkscape:path-effect
       effect="copy_rotate"
       starting_point="1396.7514,1172.9079"
       origin="1244.5,1173"
       id="path-effect2461"
       is_visible="true"
       lpeversion="1"
       method="normal"
       num_copies="11"
       starting_angle="0"
       rotation_angle="32.727273"
       gap="-0.01"
       copies_to_360="true"
       mirror_copies="false"
       split_items="false" />
    <inkscape:path-effect
       effect="copy_rotate"
       starting_point="3.8073632,367.9621"
       origin="-148.5,368"
       id="path-effect2251"
       is_visible="true"
       lpeversion="1"
       method="normal"
       num_copies="16"
       starting_angle="0"
       rotation_angle="22.5"
       gap="0"
       copies_to_360="true"
       mirror_copies="false"
       split_items="false" />
    <inkscape:path-effect
       effect="copy_rotate"
       starting_point="0,0"
       origin="85.5,85.5"
       id="path-effect2610"
       is_visible="true"
       lpeversion="1"
       method="normal"
       num_copies="16"
       starting_angle="0"
       rotation_angle="60"
       gap="0"
       copies_to_360="true"
       mirror_copies="false"
       split_items="false" />
    <inkscape:path-effect
       effect="copy_rotate"
       starting_point="0,0"
       origin="85.5,85.5"
       id="path-effect2608"
       is_visible="true"
       lpeversion="1"
       method="normal"
       num_copies="11"
       starting_angle="0"
       rotation_angle="60"
       gap="0"
       copies_to_360="true"
       mirror_copies="false"
       split_items="false" />
    <inkscape:path-effect
       effect="copy_rotate"
       starting_point="0,0"
       origin="126.75001,85.5"
       id="path-effect2514"
       is_visible="true"
       lpeversion="1"
       method="normal"
       num_copies="6"
       starting_angle="0"
       rotation_angle="60"
       gap="-0.01"
       copies_to_360="true"
       mirror_copies="false"
       split_items="false" />
    <inkscape:path-effect
       effect="copy_rotate"
       starting_point="49.341847,43.653223"
       origin="43.671925,43.653223"
       id="path-effect1915"
       is_visible="true"
       lpeversion="1"
       method="normal"
       num_copies="6"
       starting_angle="0"
       rotation_angle="60"
       gap="-0.01"
       copies_to_360="true"
       mirror_copies="false"
       split_items="true" />
    <inkscape:path-effect
       effect="copy_rotate"
       starting_point="0,0"
       origin="11.547,43.641601"
       id="path-effect1646"
       is_visible="true"
       lpeversion="1"
       method="normal"
       num_copies="6"
       starting_angle="0"
       rotation_angle="60"
       gap="0"
       copies_to_360="true"
       mirror_copies="false"
       split_items="false" />
    <inkscape:path-effect
       effect="copy_rotate"
       starting_point="33.597161,42.727563"
       origin="28.597161,42.727563"
       id="path-effect1333"
       is_visible="true"
       lpeversion="1"
       method="normal"
       num_copies="6"
       starting_angle="0"
       rotation_angle="60"
       gap="-0.01"
       copies_to_360="true"
       mirror_copies="false"
       split_items="false" />
    <inkscape:path-effect
       effect="copy_rotate"
       starting_point="33.597161,42.727563"
       origin="28.597161,42.727563"
       id="path-effect1183"
       is_visible="true"
       lpeversion="1"
       method="normal"
       num_copies="6"
       starting_angle="0"
       rotation_angle="60"
       gap="-0.01"
       copies_to_360="true"
       mirror_copies="false"
       split_items="false" />
    <inkscape:path-effect
       effect="copy_rotate"
       starting_point="0,0"
       origin="85.5,85.5"
       id="path-effect9244"
       is_visible="true"
       lpeversion="1"
       method="normal"
       num_copies="16"
       starting_angle="0"
       rotation_angle="60"
       gap="-0.01"
       copies_to_360="true"
       mirror_copies="false"
       split_items="false" />
    <inkscape:path-effect
       effect="copy_rotate"
       starting_point="0,0"
       origin="85.5,85.5"
       id="path-effect9113"
       is_visible="true"
       lpeversion="1"
       method="normal"
       num_copies="11"
       starting_angle="0"
       rotation_angle="60"
       gap="-0.01"
       copies_to_360="true"
       mirror_copies="false"
       split_items="false" />
    <inkscape:path-effect
       effect="copy_rotate"
       starting_point="0,0"
       origin="125.99998,85.5"
       id="path-effect1455"
       is_visible="true"
       lpeversion="1"
       method="normal"
       num_copies="6"
       starting_angle="0"
       rotation_angle="60"
       gap="-0.01"
       copies_to_360="true"
       mirror_copies="false"
       split_items="false" />
    <inkscape:path-effect
       effect="copy_rotate"
       starting_point="33.597161,42.727563"
       origin="28.597161,42.727563"
       id="path-effect5102"
       is_visible="true"
       lpeversion="1"
       method="normal"
       num_copies="6"
       starting_angle="0"
       rotation_angle="60"
       gap="-0.01"
       copies_to_360="true"
       mirror_copies="false"
       split_items="false" />
    <inkscape:path-effect
       effect="copy_rotate"
       starting_point="33.597161,42.727563"
       origin="28.597161,42.727563"
       id="path-effect4922"
       is_visible="true"
       lpeversion="1"
       method="normal"
       num_copies="6"
       starting_angle="0"
       rotation_angle="60"
       gap="-0.01"
       copies_to_360="true"
       mirror_copies="false"
       split_items="false" />
  </defs>
  <g
     inkscape:label="Layer 1"
     inkscape:groupmode="layer"
     id="layer1">
    <path
       sodipodi:type="star"
       style="fill:#7f7f7f;stroke:none;stroke-width:0.377953"
       id="path3845-2-3"
       inkscape:flatsided="true"
       sodipodi:sides="6"
       sodipodi:cx="670.9577"
       sodipodi:cy="840.72742"
       sodipodi:r1="152.29276"
       sodipodi:r2="131.8894"
       sodipodi:arg1="3.1415927"
       sodipodi:arg2="3.6651914"
       inkscape:rounded="0"
       inkscape:randomized="0"
       transform="matrix(0.06730457,-0.03885832,0.03885832,0.06730457,81.17221,54.987492)"
       d="m 518.66495,840.72741 76.14638,-131.88939 152.29276,10e-6 76.14637,131.88939 -76.14639,131.8894 -152.29275,-10e-6 z m 130.12004,-291.2972 19.8782,-150.98987 140.70016,-58.27991 120.82196,92.70996 -19.8782,150.98987 -140.70016,58.27991 z M 657.52562,230.5119 618.10936,83.408391 725.7966,-24.278843 872.90011,15.137429 912.31636,162.24094 804.62912,269.92817 Z M 543.55615,-67.475092 450.8462,-188.29706 l 58.27992,-140.70016 150.98987,-19.87819 92.70995,120.82197 -58.27992,140.700162 z m -219.32874,-231.689858 -131.88939,-76.14638 1e-5,-152.29276 131.88939,-76.14637 131.8894,76.14639 -1e-5,152.29275 z m -291.297204,-130.12004 -150.989866,-19.8782 -58.27991,-140.70016 92.709961,-120.82196 150.989869,19.8782 58.27991,140.70016 z m -318.918306,-8.74063 -147.10351,39.41626 -107.68723,-107.68724 39.41627,-147.10351 147.10351,-39.41625 107.68723,107.68724 z m -297.98699,113.96947 -120.82197,92.70995 -140.70016,-58.27992 -19.87819,-150.98987 120.82197,-92.70995 140.70016,58.27992 z m -231.68986,219.32874 -76.14638,131.889391 -152.29277,-7e-6 -76.1464,-131.889394 76.1464,-131.8894 152.29278,1e-5 z m -130.12004,291.2972 -19.8782,150.98987 -140.70021,58.27991 -120.8219,-92.70996 19.8782,-150.98987 140.7002,-58.279907 z m -8.74063,318.91831 39.41626,147.10351 -107.68724,107.68723 -147.1035,-39.41627 -39.4163,-147.10351 107.6873,-107.68723 z m 113.96947,297.98699 92.70995,120.82197 -58.27992,140.70014 -150.98987,19.8782 -92.70991,-120.82196 58.27988,-140.70016 z m 219.32874,231.68981 131.88939,76.1464 -1e-5,152.2928 -131.88939,76.1464 -131.8894,-76.1464 10e-6,-152.2928 z m 291.2972,130.1201 150.98987,19.8782 58.27991,140.7002 -92.70996,120.8219 -150.98987,-19.8782 -58.27991,-140.7002 z m 318.918311,8.7406 147.103509,-39.4162 107.68723,107.6872 -39.41627,147.1035 -147.103506,39.4163 -107.687235,-107.6873 z m 297.986989,-113.9694 120.82197,-92.71 140.70016,58.2799 19.87819,150.9899 -120.82197,92.7099 -140.70016,-58.2799 z"
       inkscape:path-effect="#path-effect2251" />
    <path
       sodipodi:type="star"
       style="fill:#7f7f7f;stroke:none;stroke-width:0.377953"
       id="path3845-2-6"
       inkscape:flatsided="true"
       sodipodi:sides="6"
       sodipodi:cx="670.9577"
       sodipodi:cy="840.72742"
       sodipodi:r1="152.29276"
       sodipodi:r2="131.8894"
       sodipodi:arg1="3.1415927"
       sodipodi:arg2="3.6651914"
       inkscape:rounded="0"
       inkscape:randomized="0"
       transform="matrix(-0.06730457,0.03885832,-0.03885832,-0.06730457,214.82776,116.01251)"
       inkscape:transform-center-y="1.3580827e-05"
       inkscape:transform-center-x="-2.2862436e-06"
       d="m 518.66495,840.72741 76.14638,-131.88939 152.29276,10e-6 76.14637,131.88939 -76.14639,131.8894 -152.29275,-10e-6 z m -64.41638,445.16319 -7.24637,-152.1203 128.11682,-82.3357 135.3632,69.7846 7.24637,152.1203 -128.11682,82.3357 z m 186.48287,409.3212 -88.33846,-124.0541 63.26471,-138.5303 151.60316,-14.4764 88.33846,124.0541 -63.2647,138.5303 z m 378.17516,243.5226 -141.38374,-56.6015 -21.67352,-150.7426 119.7102,-94.1412 141.38366,56.6016 21.6736,150.7426 z m 449.7994,0.4074 -149.5406,28.8216 -99.7306,-115.0952 49.8101,-143.9168 149.5407,-28.8216 99.7305,115.0952 z m 378.6156,-242.8372 -110.2194,105.094 -146.1239,-42.9058 -35.9043,-147.9999 110.2194,-105.094 146.1239,42.9058 z m 187.224,-408.9827 -35.9043,147.9998 -146.1239,42.9058 -110.2194,-105.094 35.9044,-147.9999 146.1238,-42.9058 z m -63.6099,-445.27916 49.8101,143.91678 -99.7305,115.09518 -149.5407,-28.8216 -49.81,-143.91678 99.7305,-115.09518 z m -294.2481,-340.20252 119.7102,94.14114 -21.6735,150.74264 -141.3837,56.60149 -119.7102,-94.14114 21.6735,-150.74264 z m -431.4646,-127.11403 151.6032,14.47635 63.2647,138.53037 -88.3385,124.05401 -151.6032,-14.47635 -63.2647,-138.53037 z m -431.69418,126.33226 135.36321,-69.78457 128.11677,82.33569 -7.2463,152.12025 -135.36325,69.78458 -128.11682,-82.33569 z"
       inkscape:path-effect="#path-effect2461" />
  </g>
</svg>
