<?xml version="1.0" encoding="UTF-8" standalone="no"?>
<!-- Created with Inkscape (http://www.inkscape.org/) -->

<svg
   width="179.62822mm"
   height="179.62822mm"
   viewBox="0 0 179.62822 179.62822"
   version="1.1"
   id="svg5"
   xmlns="http://www.w3.org/2000/svg"
   xmlns:svg="http://www.w3.org/2000/svg">
  <defs
     id="defs2" />
  <g
     id="layer1"
     transform="translate(4.3367672,4.2880756)">
    <path
       style="fill:none;stroke:#0000ff;stroke-width:1.02938;stroke-miterlimit:4;stroke-dasharray:none;stroke-opacity:1"
       id="path3845-2-3"
       transform="matrix(0.06730457,-0.03885832,0.03885832,0.06730457,81.17221,54.987492)"
       d="m 518.78256,840.56138 76.11356,-131.90834 152.29275,-0.0379 76.17919,131.87045 -76.11356,131.90834 -152.29275,0.0379 z M 648.83011,549.23181 668.67074,398.23699 809.35639,339.92208 930.20142,432.60197 910.36079,583.59678 769.67514,641.9117 Z M 657.49138,230.31133 618.03852,83.217638 725.69896,-24.49639 872.81227,14.883276 912.26513,161.97697 804.60469,269.691 Z M 543.44777,-67.647289 450.70775,-188.44619 l 58.24491,-140.71465 150.98492,-19.91576 92.74001,120.7989 -58.2449,140.714653 z m -219.38639,-231.635271 -131.90834,-76.11356 -0.0379,-152.29275 131.87045,-76.17919 131.90834,76.11356 0.0379,152.29275 z m -291.329575,-130.04755 -150.994815,-19.84063 -58.31491,-140.68565 92.67989,-120.84503 150.99481,19.84063 58.31492,140.68565 z m -318.920475,-8.66127 -147.09369,39.45286 -107.71403,-107.66044 39.37967,-147.11331 147.09369,-39.45286 107.71403,107.66044 z m -297.95862,114.04361 -120.7989,92.74002 -140.71465,-58.24491 -19.91576,-150.98492 120.7989,-92.74001 140.71465,58.2449 z m -231.63527,219.38639 -76.11356,131.908337 -152.29278,0.03789 -76.1792,-131.870447 76.1136,-131.90834 152.29275,-0.0379 z m -130.04755,291.32957 -19.84063,150.99482 -140.68566,58.31491 -120.845,-92.67989 19.8406,-150.99481 140.6857,-58.314918 z m -8.66127,318.92048 39.45286,147.09369 -107.66048,107.71403 -147.1133,-39.37967 -39.4528,-147.09369 107.6604,-107.71403 z m 114.04361,297.95862 92.74002,120.7989 -58.24491,140.71461 -150.98492,19.9158 -92.74002,-120.7989 58.24491,-140.71465 z m 219.38639,231.63531 131.90834,76.1135 0.0379,152.2928 -131.87045,76.1792 -131.90834,-76.1136 -0.0379,-152.2928 z m 291.32957,130.0475 150.99482,19.8406 58.31491,140.6857 -92.67989,120.845 -150.99481,-19.8406 -58.31492,-140.6857 z m 318.920478,8.6613 147.093692,-39.4529 107.71403,107.6605 -39.37967,147.1133 -147.09369,39.4528 -107.714028,-107.6604 z m 297.958622,-114.0436 120.7989,-92.74005 140.71465,58.24495 19.91576,150.9849 -120.7989,92.74 -140.71465,-58.2449 z" />
    <path
       style="fill:none;stroke:#0000ff;stroke-width:1.02938;stroke-miterlimit:4;stroke-dasharray:none;stroke-opacity:1"
       id="path3845-2-6"
       transform="matrix(-0.06730457,0.03885832,-0.03885832,-0.06730457,214.82776,116.01251)"
       d="m 518.46408,841.16654 76.06659,-131.93543 152.29273,-0.0921 76.22614,131.84331 -76.06659,131.93543 -152.29273,0.0921 z m -64.14707,445.20206 -7.3384,-152.1159 128.067,-82.4131 135.40538,69.7027 7.3384,152.1158 -128.067,82.4132 z m 186.73044,409.2083 -88.41349,-124.0006 63.1809,-138.5686 151.59437,-14.568 88.41349,124.0006 -63.18089,138.5686 z m 378.32235,243.2938 -141.41791,-56.5159 -21.76469,-150.7295 119.65322,-94.2136 141.41788,56.516 21.7647,150.7295 z m 449.7996,0.1353 -149.5231,28.9121 -99.8002,-115.0349 49.723,-143.9468 149.5232,-28.9121 99.8001,115.0349 z m 378.4687,-243.0662 -110.1559,105.1607 -146.1497,-42.8174 -35.9939,-147.9781 110.1558,-105.1607 146.1498,42.8174 z m 186.9766,-409.0959 -35.8149,148.0216 -146.0978,42.9942 -110.283,-105.0274 35.8148,-148.0215 146.0979,-42.9942 z m -63.8793,-445.24054 49.8971,143.88663 -99.6609,115.15551 -149.558,-28.7312 -49.8971,-143.88658 99.6609,-115.15549 z m -294.4538,-340.02445 119.7671,94.0687 -21.5824,150.75572 -141.3494,56.68701 -119.7671,-94.06871 21.5823,-150.75572 z m -431.5415,-126.85301 151.6119,14.38464 63.3485,138.49207 -88.2634,124.10743 -151.6119,-14.38464 -63.3485,-138.49207 z m -431.61767,126.59338 135.32096,-69.86644 128.16661,82.25817 -7.1544,152.12461 -135.32094,69.86644 -128.1666,-82.25817 z" />
  </g>
</svg>
