<?xml version="1.0" encoding="UTF-8" standalone="no"?>
<!-- Created with Inkscape (http://www.inkscape.org/) -->

<svg
   width="210mm"
   height="297mm"
   viewBox="0 0 210 297"
   version="1.1"
   id="svg5"
   inkscape:version="1.1.1 (eb90963e84, 2021-10-02)"
   sodipodi:docname="lenses.svg"
   xmlns:inkscape="http://www.inkscape.org/namespaces/inkscape"
   xmlns:sodipodi="http://sodipodi.sourceforge.net/DTD/sodipodi-0.dtd"
   xmlns="http://www.w3.org/2000/svg"
   xmlns:svg="http://www.w3.org/2000/svg">
  <sodipodi:namedview
     id="namedview7"
     pagecolor="#ffffff"
     bordercolor="#666666"
     borderopacity="1.0"
     inkscape:pageshadow="2"
     inkscape:pageopacity="0.0"
     inkscape:pagecheckerboard="0"
     inkscape:document-units="mm"
     showgrid="false"
     inkscape:zoom="1.2505201"
     inkscape:cx="-81.566062"
     inkscape:cy="494.59421"
     inkscape:window-width="3768"
     inkscape:window-height="2089"
     inkscape:window-x="72"
     inkscape:window-y="34"
     inkscape:window-maximized="1"
     inkscape:current-layer="layer1" />
  <defs
     id="defs2">
    <inkscape:path-effect
       effect="copy_rotate"
       starting_point="92.467655,85.442446"
       origin="85.494613,85.442446"
       id="path-effect5274"
       is_visible="true"
       lpeversion="1"
       method="normal"
       num_copies="11"
       starting_angle="0"
       rotation_angle="32.727273"
       gap="-0.01"
       copies_to_360="true"
       mirror_copies="false"
       split_items="false" />
    <inkscape:path-effect
       effect="copy_rotate"
       starting_point="92.474799,85.532012"
       origin="85.474798,85.532012"
       id="path-effect5253"
       is_visible="true"
       lpeversion="1"
       method="normal"
       num_copies="16"
       starting_angle="0"
       rotation_angle="22.5"
       gap="-0.01"
       copies_to_360="true"
       mirror_copies="false"
       split_items="false" />
    <inkscape:path-effect
       effect="copy_rotate"
       starting_point="1396.7514,1172.9079"
       origin="1244.5,1173"
       id="path-effect2461"
       is_visible="true"
       lpeversion="1"
       method="normal"
       num_copies="11"
       starting_angle="0"
       rotation_angle="32.727273"
       gap="-0.01"
       copies_to_360="true"
       mirror_copies="false"
       split_items="false" />
    <inkscape:path-effect
       effect="copy_rotate"
       starting_point="3.8073632,367.9621"
       origin="-148.5,368"
       id="path-effect2251"
       is_visible="true"
       lpeversion="1"
       method="normal"
       num_copies="16"
       starting_angle="0"
       rotation_angle="22.5"
       gap="0"
       copies_to_360="true"
       mirror_copies="false"
       split_items="false" />
    <inkscape:path-effect
       effect="copy_rotate"
       starting_point="0,0"
       origin="85.5,85.5"
       id="path-effect2610"
       is_visible="true"
       lpeversion="1"
       method="normal"
       num_copies="16"
       starting_angle="0"
       rotation_angle="60"
       gap="0"
       copies_to_360="true"
       mirror_copies="false"
       split_items="false" />
    <inkscape:path-effect
       effect="copy_rotate"
       starting_point="0,0"
       origin="85.5,85.5"
       id="path-effect2608"
       is_visible="true"
       lpeversion="1"
       method="normal"
       num_copies="11"
       starting_angle="0"
       rotation_angle="60"
       gap="0"
       copies_to_360="true"
       mirror_copies="false"
       split_items="false" />
    <inkscape:path-effect
       effect="copy_rotate"
       starting_point="0,0"
       origin="126.75001,85.5"
       id="path-effect2514"
       is_visible="true"
       lpeversion="1"
       method="normal"
       num_copies="6"
       starting_angle="0"
       rotation_angle="60"
       gap="-0.01"
       copies_to_360="true"
       mirror_copies="false"
       split_items="false" />
    <inkscape:path-effect
       effect="copy_rotate"
       starting_point="49.341847,43.653223"
       origin="43.671925,43.653223"
       id="path-effect1915"
       is_visible="true"
       lpeversion="1"
       method="normal"
       num_copies="6"
       starting_angle="0"
       rotation_angle="60"
       gap="-0.01"
       copies_to_360="true"
       mirror_copies="false"
       split_items="true" />
    <inkscape:path-effect
       effect="copy_rotate"
       starting_point="0,0"
       origin="11.547,43.641601"
       id="path-effect1646"
       is_visible="true"
       lpeversion="1"
       method="normal"
       num_copies="6"
       starting_angle="0"
       rotation_angle="60"
       gap="0"
       copies_to_360="true"
       mirror_copies="false"
       split_items="false" />
    <inkscape:path-effect
       effect="copy_rotate"
       starting_point="33.597161,42.727563"
       origin="28.597161,42.727563"
       id="path-effect1333"
       is_visible="true"
       lpeversion="1"
       method="normal"
       num_copies="6"
       starting_angle="0"
       rotation_angle="60"
       gap="-0.01"
       copies_to_360="true"
       mirror_copies="false"
       split_items="false" />
    <inkscape:path-effect
       effect="copy_rotate"
       starting_point="33.597161,42.727563"
       origin="28.597161,42.727563"
       id="path-effect1183"
       is_visible="true"
       lpeversion="1"
       method="normal"
       num_copies="6"
       starting_angle="0"
       rotation_angle="60"
       gap="-0.01"
       copies_to_360="true"
       mirror_copies="false"
       split_items="false" />
    <inkscape:path-effect
       effect="copy_rotate"
       starting_point="0,0"
       origin="85.5,85.5"
       id="path-effect9244"
       is_visible="true"
       lpeversion="1"
       method="normal"
       num_copies="16"
       starting_angle="0"
       rotation_angle="60"
       gap="-0.01"
       copies_to_360="true"
       mirror_copies="false"
       split_items="false" />
    <inkscape:path-effect
       effect="copy_rotate"
       starting_point="0,0"
       origin="85.5,85.5"
       id="path-effect9113"
       is_visible="true"
       lpeversion="1"
       method="normal"
       num_copies="11"
       starting_angle="0"
       rotation_angle="60"
       gap="-0.01"
       copies_to_360="true"
       mirror_copies="false"
       split_items="false" />
    <inkscape:path-effect
       effect="copy_rotate"
       starting_point="0,0"
       origin="125.99998,85.5"
       id="path-effect1455"
       is_visible="true"
       lpeversion="1"
       method="normal"
       num_copies="6"
       starting_angle="0"
       rotation_angle="60"
       gap="-0.01"
       copies_to_360="true"
       mirror_copies="false"
       split_items="false" />
    <inkscape:path-effect
       effect="copy_rotate"
       starting_point="33.597161,42.727563"
       origin="28.597161,42.727563"
       id="path-effect5102"
       is_visible="true"
       lpeversion="1"
       method="normal"
       num_copies="6"
       starting_angle="0"
       rotation_angle="60"
       gap="-0.01"
       copies_to_360="true"
       mirror_copies="false"
       split_items="false" />
    <inkscape:path-effect
       effect="copy_rotate"
       starting_point="33.597161,42.727563"
       origin="28.597161,42.727563"
       id="path-effect4922"
       is_visible="true"
       lpeversion="1"
       method="normal"
       num_copies="6"
       starting_angle="0"
       rotation_angle="60"
       gap="-0.01"
       copies_to_360="true"
       mirror_copies="false"
       split_items="false" />
  </defs>
  <g
     inkscape:label="Layer 1"
     inkscape:groupmode="layer"
     id="layer1">
    <path
       style="fill:#ff8900;fill-opacity:1;stroke:none;stroke-width:0.0799999"
       id="path3407"
       inkscape:path-effect="#path-effect5253"
       sodipodi:type="arc"
       sodipodi:cx="158.99998"
       sodipodi:cy="85.5"
       sodipodi:rx="7"
       sodipodi:ry="7"
       d="m 165.99998,85.5 c 0,3.865993 -3.134,7 -7,7 -3.86599,0 -7,-3.134007 -7,-7 0,-3.865993 3.13401,-7 7,-7 3.866,0 7,3.134007 7,7 z m -6.14186,-30.813218 c 1.47945,3.571712 -0.21666,7.666489 -3.78837,9.145941 -3.57172,1.479451 -7.66649,-0.216661 -9.14594,-3.788373 -1.47946,-3.571712 0.21666,-7.666489 3.78837,-9.145941 3.57171,-1.479451 7.66649,0.216661 9.14594,3.788373 z M 142.39207,28.569471 c 2.73367,2.73367 2.73367,7.165825 0,9.899495 -2.73367,2.73367 -7.16583,2.73367 -9.8995,0 -2.73367,-2.73367 -2.73367,-7.165825 0,-9.899495 2.73367,-2.73367 7.16583,-2.73367 9.8995,0 z M 116.26088,11.12419 c 3.57171,1.479452 5.26782,5.574229 3.78837,9.145941 -1.47945,3.571712 -5.57423,5.267824 -9.14594,3.788373 -3.57171,-1.479452 -5.26782,-5.574229 -3.78837,-9.145941 1.47945,-3.571712 5.57423,-5.2678244 9.14594,-3.788373 z M 85.442786,5.0068259 c 3.865994,0 7,3.1340067 7,7.0000001 0,3.865993 -3.134006,7 -7,7 -3.865993,0 -7,-3.134007 -7,-7 0,-3.8659934 3.134007,-7.0000001 7,-7.0000001 z M 54.629568,11.148691 c 3.571713,-1.4794514 7.66649,0.216661 9.145941,3.788373 1.479452,3.571712 -0.21666,7.666489 -3.788372,9.145941 -3.571712,1.479451 -7.66649,-0.216661 -9.145941,-3.788373 -1.479452,-3.571712 0.21666,-7.666489 3.788372,-9.145941 z M 28.512257,28.614743 c 2.73367,-2.73367 7.165825,-2.73367 9.899495,0 2.73367,2.73367 2.73367,7.165825 0,9.899495 -2.73367,2.73367 -7.165825,2.73367 -9.899495,0 -2.73367,-2.73367 -2.73367,-7.165825 0,-9.899495 z m -17.44528,26.13119 c 1.479451,-3.571712 5.574228,-5.267824 9.14594,-3.788373 3.571712,1.479452 5.267825,5.574229 3.788373,9.145941 -1.479452,3.571712 -5.574229,5.267824 -9.145941,3.788373 -3.571712,-1.479452 -5.267824,-5.574229 -3.788372,-9.145941 z M 4.9496123,85.564024 c 0,-3.865993 3.1340067,-7 6.9999997,-7 3.865994,0 7,3.134007 7,7 0,3.865993 -3.134006,7 -7,7 -3.865993,0 -6.9999997,-3.134007 -6.9999997,-7 z m 6.1418657,30.813216 c -1.479452,-3.57171 0.21666,-7.66649 3.788372,-9.14594 3.571712,-1.47945 7.666489,0.21666 9.145941,3.78837 1.479452,3.57172 -0.216661,7.66649 -3.788373,9.14594 -3.571712,1.47946 -7.666489,-0.21666 -9.14594,-3.78837 z m 17.466051,26.11731 c -2.73367,-2.73367 -2.73367,-7.16582 0,-9.89949 2.73367,-2.73367 7.165825,-2.73367 9.899495,0 2.73367,2.73367 2.73367,7.16582 0,9.89949 -2.73367,2.73367 -7.165825,2.73367 -9.899495,0 z m 26.13119,17.44528 c -3.571712,-1.47945 -5.267824,-5.57422 -3.788373,-9.14594 1.479452,-3.57171 5.574229,-5.26782 9.145941,-3.78837 3.571712,1.47945 5.267824,5.57423 3.788373,9.14594 -1.479452,3.57171 -5.574229,5.26783 -9.145941,3.78837 z m 30.818092,6.11737 c -3.865994,0 -7,-3.13401 -7,-7 0,-3.86599 3.134006,-7 7,-7 3.865993,0 7,3.13401 7,7 0,3.86599 -3.134007,7 -7,7 z m 30.813219,-6.14187 c -3.57171,1.47945 -7.66649,-0.21666 -9.14594,-3.78837 -1.47945,-3.57171 0.21666,-7.66649 3.78837,-9.14594 3.57171,-1.47945 7.66649,0.21666 9.14594,3.78837 1.47945,3.57171 -0.21666,7.66649 -3.78837,9.14594 z m 26.11731,-17.46605 c -2.73367,2.73367 -7.16583,2.73367 -9.8995,0 -2.73367,-2.73367 -2.73367,-7.16582 0,-9.89949 2.73367,-2.73367 7.16583,-2.73367 9.8995,0 2.73367,2.73367 2.73367,7.16582 0,9.89949 z m 17.44528,-26.13119 c -1.47945,3.57171 -5.57423,5.26783 -9.14594,3.78837 -3.57171,-1.47945 -5.26782,-5.57422 -3.78837,-9.14594 1.47945,-3.57171 5.57423,-5.26782 9.14594,-3.78837 3.57171,1.47945 5.26782,5.57423 3.78837,9.14594 z" />
    <path
       style="fill:#ff8900;fill-opacity:1;stroke:none;stroke-width:0.0799999"
       id="path3407-1"
       inkscape:path-effect="#path-effect5274"
       sodipodi:type="arc"
       sodipodi:cx="136.99998"
       sodipodi:cy="85.5"
       sodipodi:rx="7"
       sodipodi:ry="7"
       d="m 143.99998,85.5 c 0,3.865993 -3.134,7 -7,7 -3.86599,0 -7,-3.134007 -7,-7 0,-3.865993 3.13401,-7 7,-7 3.866,0 7,3.134007 7,7 z m -9.2564,-31.639529 c 2.09011,3.252281 1.14799,7.583147 -2.10429,9.673261 -3.25228,2.090114 -7.58315,1.147991 -9.67326,-2.104289 -2.09011,-3.252281 -1.14799,-7.583147 2.10429,-9.673261 3.25228,-2.090113 7.58315,-1.147991 9.67326,2.104289 z m -24.8926,-21.612475 c 3.51663,1.605992 5.06551,5.758698 3.45951,9.275329 -1.60599,3.516632 -5.75869,5.065511 -9.27532,3.459519 -3.51664,-1.605991 -5.065515,-5.758698 -3.45952,-9.275329 1.60599,-3.516631 5.75869,-5.06551 9.27533,-3.459519 z M 77.225399,27.524383 c 3.826643,-0.550188 7.374766,2.105903 7.924954,5.932546 0.550188,3.826643 -2.105903,7.374766 -5.932546,7.924954 -3.826643,0.550189 -7.374766,-2.105903 -7.924954,-5.932546 -0.550189,-3.826643 2.105903,-7.374766 5.932546,-7.924954 z m -30.00016,13.664963 c 2.921722,-2.531688 7.342585,-2.215501 9.874272,0.706222 2.531687,2.921722 2.215501,7.342585 -0.706222,9.874272 -2.921723,2.531687 -7.342585,2.215501 -9.874272,-0.706222 -2.531687,-2.921723 -2.215501,-7.342585 0.706222,-9.874272 z M 29.375334,68.904355 c 1.089177,-3.709394 4.979186,-5.833499 8.688579,-4.744323 3.709394,1.089176 5.833499,4.979185 4.744323,8.688578 -1.089176,3.709394 -4.979185,5.8335 -8.688579,4.744323 -3.709393,-1.089176 -5.833499,-4.979185 -4.744323,-8.688578 z m -0.03243,32.965735 c -1.089177,-3.709393 1.034929,-7.599402 4.744323,-8.688578 3.709393,-1.089176 7.599402,1.03493 8.688578,4.744323 1.089176,3.709395 -1.034929,7.599405 -4.744323,8.688575 -3.709393,1.08918 -7.599402,-1.03493 -8.688578,-4.74432 z m 17.79534,27.75008 c -2.921722,-2.53169 -3.237909,-6.95255 -0.706222,-9.87428 2.531688,-2.92172 6.95255,-3.23791 9.874273,-0.70622 2.921722,2.53169 3.237909,6.95255 0.706222,9.87427 -2.531688,2.92173 -6.95255,3.23791 -9.874273,0.70623 z m 29.973217,13.72396 c -3.826643,-0.55019 -6.482735,-4.09831 -5.932546,-7.92496 0.550188,-3.82664 4.09831,-6.48273 7.924953,-5.93254 3.826644,0.55018 6.482735,4.09831 5.932547,7.92495 -0.550188,3.82664 -4.098311,6.48273 -7.924954,5.93255 z m 32.634808,-4.65942 c -3.51663,1.60599 -7.66934,0.0571 -9.27533,-3.45952 -1.605991,-3.51663 -0.0571,-7.66933 3.45952,-9.27533 3.51663,-1.60599 7.66934,-0.0571 9.27533,3.45952 1.60599,3.51663 0.0571,7.66934 -3.45952,9.27533 z m 24.93508,-21.56345 c -2.09012,3.25228 -6.42098,4.1944 -9.67326,2.10428 -3.25228,-2.09011 -4.19441,-6.42098 -2.10429,-9.67326 2.09011,-3.25228 6.42098,-4.1944 9.67326,-2.10428 3.25228,2.09011 4.1944,6.42098 2.10429,9.67326 z" />
  </g>
</svg>
