<?xml version="1.0" encoding="UTF-8" standalone="no"?>
<!-- Created with Inkscape (http://www.inkscape.org/) -->

<svg
   width="171.021mm"
   height="171.021mm"
   viewBox="0 0 171.021 171.021"
   version="1.1"
   id="svg5"
   xmlns="http://www.w3.org/2000/svg"
   xmlns:svg="http://www.w3.org/2000/svg">
  <defs
     id="defs2" />
  <g
     id="layer1"
     transform="translate(0.0105,0.0105)">
    <path
       id="path2560-3"
       style="fill:none;stroke:#0000fe;stroke-width:0.021"
       transform="rotate(73.74044)"
       d="m 107.92149,-115.8952 a 2,2 0 0 1 -2,2 2,2 0 0 1 -2,-2 2,2 0 0 1 2,-2 2,2 0 0 1 2,2 z M 91.614628,-2.1378344 a 2,2 0 0 1 -2.479985,1.36002787 2,2 0 0 1 -1.360028,-2.47998467 2,2 0 0 1 2.479985,-1.3600279 2,2 0 0 1 1.360028,2.4799847 z M 135.43648,-107.81468 a 2,2 0 0 0 0.61127,2.76158 2,2 0 0 0 2.76158,-0.61126 2,2 0 0 0 -0.61126,-2.76159 2,2 0 0 0 -2.76159,0.61127 z m -18.35756,11.753363 a 39.5,39.5 0 0 1 26.86055,48.979697 39.5,39.5 0 0 1 -48.979698,26.860551 39.5,39.5 0 0 1 -26.860551,-48.979697 39.5,39.5 0 0 1 48.979699,-26.860551 z m 12.8795,-44.160143 A 85.5,85.5 0 0 1 188.09962,-34.202117 85.5,85.5 0 0 1 82.080269,23.939076 85.5,85.5 0 0 1 23.939076,-82.080269 85.5,85.5 0 0 1 129.95842,-140.22146 Z" />
  </g>
</svg>
