<?xml version="1.0" encoding="UTF-8" standalone="no"?>
<!-- Created with Inkscape (http://www.inkscape.org/) -->

<svg
   width="280.07999mm"
   height="280.07999mm"
   viewBox="0 0 280.07999 280.07999"
   version="1.1"
   id="svg5"
   xmlns="http://www.w3.org/2000/svg"
   xmlns:svg="http://www.w3.org/2000/svg">
  <defs
     id="defs2" />
  <g
     id="layer1"
     transform="translate(-30.158883,-21.354485)"
     style="fill:none;stroke:#0000ff;stroke-width:0.08;stroke-miterlimit:4;stroke-dasharray:none;stroke-opacity:1">
    <g
       id="g2277"
       transform="translate(-159.2916,122.63846)"
       style="fill:none;stroke:#0000ff;stroke-width:0.08;stroke-miterlimit:4;stroke-dasharray:none;stroke-opacity:1">
      <g
         id="g2270"
         style="fill:none;stroke:#0000ff;stroke-width:0.08;stroke-miterlimit:4;stroke-dasharray:none;stroke-opacity:1">
        <path
           id="path1848-7"
           d="m 339.99048,46.756027 a 2.5,2.5 0 0 1 -2.5,2.5 2.5,2.5 0 0 1 -2.5,-2.5 2.5,2.5 0 0 1 2.5,-2.5 2.5,2.5 0 0 1 2.5,2.5 z m 0,-15.999998 a 2.5,2.5 0 0 1 -2.5,2.5 2.5,2.5 0 0 1 -2.5,-2.5 2.5,2.5 0 0 1 2.5,-2.5 2.5,2.5 0 0 1 2.5,2.5 z m -16,15.999998 a 2.5,2.5 0 0 1 -2.5,2.5 2.5,2.5 0 0 1 -2.5,-2.5 2.5,2.5 0 0 1 2.5,-2.5 2.5,2.5 0 0 1 2.5,2.5 z m 0,-15.999998 a 2.5,2.5 0 0 1 -2.5,2.5 2.5,2.5 0 0 1 -2.5,-2.5 2.5,2.5 0 0 1 2.5,-2.5 2.5,2.5 0 0 1 2.5,2.5 z m 12.5,8.000001 a 7,7 0 0 1 -7,7 7,7 0 0 1 -7,-7 7,7 0 0 1 7,-7 7,7 0 0 1 7,7 z m 133,0 a 140,140 0 0 1 -140,140 140,140 0 0 1 -140,-140 140,140 0 0 1 140,-140 140,140 0 0 1 140,140 z" />
      </g>
    </g>
  </g>
</svg>
